<svg xmlns="http://www.w3.org/2000/svg" viewBox="0 0 123.8 131.4"><path fill="#BA2731" d="M117.4 26.5L60.7 6.7v118l47.8-25.9z"/><path fill="#E72734" d="M6.3 26.5L60.7 6.7v118L15 99.3z"/><path fill="#FFF" d="M50.3 66.2l10.4-24.9V14.8L24.2 96h12.6l8.6-18.8h15.3v-11z"/><path fill="#B4B3B4" d="M60.7 14.8v26.5l13.2 24.9H60.7v11h17.9L86.8 96h12.8z"/><path fill="#B4B3B4" d="M60.7 0L0 22l9.7 81.1 50.9 28.3 53.3-28.9 9.9-80.6L60.7 0zm47.8 98.8l-47.8 25.9L15 99.3 6.3 26.5 60.7 6.7l56.7 19.7-8.9 72.4z"/></svg>