<svg width="500" height="634" xmlns="http://www.w3.org/2000/svg"><g fill-rule="nonzero" fill="none"><g fill="#131B28"><path d="M159.9 561.171l.001-.005-3.352 11.88 3.351-11.875zm17.24 25.791l-3.693-.022 3.693.022zm-.95 17.741h.004l-22.131.08 22.127-.08zm4.64-17.719l-3.695-.022 3.695.022zm-2.7 16.211l3.854-14.702-3.854 14.705v-.003zm81.48-67.705l-7.181 33.76 7.181-33.76zm-18.46 0l-5.451 25.22 5.451-25.222v.002z"/><path d="M258.38 533.971h-15.356c-.852 0-1.697.684-1.88 1.517l-5.451 25.222-5.452 25.223c-.181.832-1.025 1.514-1.877 1.514h-10.869c-10.753 0-9.51-7.438-7.308-17.627l.066-.308.241-1.284.046-.242.49-2.615.526-2.803c.16-.845.402-2.08.562-2.856l2.478-12.109 2.48-12.109c.171-.835-.388-1.521-1.24-1.521h-15.762c-.852 0-1.695.686-1.87 1.519l-3.389 16.079-3.389 16.077c-.003.007-.004.017-.005.024l-.315 1.494c-3.903 17.822-2.868 34.817 18.348 35.349.347.01.615.013.615.013h33.302c.852 0 1.695-.684 1.874-1.519l7.181-33.757 7.182-33.76c.176-.837-.376-1.52-1.228-1.521zm61.26 53.65c.854 0 1.411.684 1.24 1.519l-1.491 7.288.251-8.807zm-1.74 16.098l1.491-7.292-1.492 7.295.001-.003zm-1.87 1.534l.008-.002c-4.52.036-18.1.14-28.307.14 12.422 0 28.298-.137 28.299-.138zm-37.46-27.019c-.012-.798.896-2.173 1.75-2.173l-1.918-.032c-.865 8.692.168 2.205.168 2.205z"/><path d="M289.13 605.387c-.098 0-.198 0-.296.002.098-.002.198-.002.296-.002zm30.51-17.766c.854 0 1.411.684 1.24 1.519l-1.491 7.288-.243 1.188.494-9.995zM296.4 605.37h-.062.062zm-3.77.012h-.219.219zm-1.15.003c-.122 0-.241 0-.361.002.12-.002.239-.002.361-.002zm-1.17.002h-.317.317zm2.1-.005l-.931.002.931-.002zm3.93-.012c-1.243.005-2.483.01-3.705.013 1.222-.002 2.464-.008 3.705-.013zm21.56-1.647l1.249-6.106-1.25 6.11.001-.004zm-26.78 1.664h-.811.811zm-2.29.002h-1.097 1.097zm1.16-.002h-.864.864zm-224.63-26.97l2.386-10.574-2.728 12.087-2.617 12.312 2.294-10.793c.176-.835.477-2.2.665-3.032zm28.55-44.624H77.046c-.854 0-1.704.681-1.895 1.511l-1.6 7.058-1.599 7.061c-.188.83.355 1.511 1.208 1.511h16.995c.853 0 1.699-.681 1.883-1.514l1.545-7.058 1.546-7.053v-.002c.183-.832-.365-1.514-1.219-1.514zm-3.67 23.479v-.002l-4.946 22.882 4.946-22.88zM41.25 633.09s8.501.109 13.904.109c-4.104 0-10.885-.075-13.911-.111l.007.002zm28.88-75.821l-2.388 10.574 2.388-10.574z"/><path d="M89.02 555.756H72.023c-.852 0-1.704.681-1.892 1.514l-2.388 10.574-2.386 10.574c-.188.832-.488 2.197-.665 3.032l-2.294 10.793-2.292 10.793a32.847 32.847 0 01-.818 2.985s-3.175 9.448-8.513 9.341c-.228-.005-.448-.007-.667-.013-2.587-.049-4.619-.085-4.619-.085h-.004c-.851-.013-1.706.651-1.905 1.479l-1.763 7.41-1.761 7.406c-.197.828.337 1.512 1.185 1.526 3.027.036 9.807.112 13.912.112 13.334 0 20.363-7.388 24.869-28.647l5.273-24.398 4.946-22.883c.18-.831-.37-1.513-1.221-1.513zm241.45 48.769c-.853 0-1.405-.684-1.226-1.52l12.786-59.89-11.56 61.41zm17.77-1.521l5.171-25.562-5.171 25.562z"/><path d="M329.43 603.766c-.104-.417-.043-1.439.138-2.275l6.068-28.428-6.393 29.944c-.18.835.373 1.519 1.226 1.519h1.553c-.854-.001-2.49-.342-2.592-.76zm17.8.418c-.464.188-1.543.342-2.396.342h1.553c.853 0 1.689-.684 1.858-1.521l.308-1.519c-.171.834-.858 2.509-1.323 2.698zm3.6-13.961l2.282-11.282c-.001.007-.002.017-.004.022l-2.278 11.26zm50.45-43.095l.704 2.91c.194.833-.344 1.509-1.194 1.511l.49-4.421zm-52.73 54.358l2.276-11.262-2.276 11.262zm52.029-57.339l.697 2.981-.697-2.981zm-47.469 34.795c.17-.835.451-2.188.628-3.015l2.438-11.421-2.761 12.937-.305 1.499zm-10.87-36.807c-.169.806-.387 1.824-.53 2.498l-6.068 28.43 6.393-29.946.205-.982z"/><path d="M401.98 550.038l-.704-2.91-.697-2.981-.353-1.509c-1.381-5.363-5.434-8.459-14.233-8.459l-13.7-.015-12.617-.015H345.48c-.852 0-1.695.681-1.871 1.516h-.001l-.628 2.966-.74 3.503-.207.981-6.393 29.946-6.068 28.428c-.181.836-.241 1.858-.138 2.275.103.418 1.738.76 2.592.76h12.808c.854 0 1.933-.154 2.396-.342.465-.188 1.152-1.863 1.322-2.698l2.276-11.262 2.279-11.26.004-.022.304-1.499 2.762-12.937 2.438-11.426c.181-.83 1.021-1.509 1.871-1.511l40.3-.02c.85 0 1.389-.677 1.194-1.509z"/><path d="M453.86 523.725c-.854.006-2.248.011-3.102.011h-12.899c-.854 0-1.945.576-2.427 1.28l-28.522 41.787c-.482.706-1.031.601-1.221-.229l-2.099-9.207c-.189-.833-1.044-1.511-1.896-1.511h-18.338c-.853 0-1.358.669-1.125 1.489l8.217 28.784c.234.82.251 2.168.04 2.994l-3.581 13.931c-.213.827.312 1.504 1.166 1.504h18.122c.853 0 1.724-.677 1.936-1.504l3.583-13.931c.211-.826.804-2.061 1.318-2.742l46.306-61.459c.514-.681.235-1.235-.616-1.229l-4.862.032zm-145.68 36.049l-.001-.017c-.107.925-.961 1.604-1.812 1.604h-23.248c-.804 0-1.213-.547-1.094-1.221.007-.02.01-.037.021-.054 0 0-.008.002-.015.007.005-.027.005-.052.013-.078l.106-.396c2.221-5.903 6.743-9.778 15.243-9.778 9.569.001 11.437 4.677 10.787 9.933zm-6.82-26.834c-29.841 0-36.912 18.113-40.879 36.394-3.967 18.633-3.625 36.055 27.253 36.055h1.097c.098-.002.197-.002.295-.002h1.992c.12-.002.239-.002.361-.002l.931-.002h.218c1.223-.002 2.463-.008 3.705-.012h.062c8.155-.032 16.334-.094 19.646-.12.848-.013 1.677-.696 1.851-1.523l1.25-6.11.243-1.189 1.492-7.287c.171-.836-.388-1.52-1.24-1.52h-27.762c-11.041 0-14.319-2.934-13.111-11.56h44.377l-.004.005c.011 0 .021-.005.03-.005.705-.013 1.357-.498 1.616-1.145.049-.125.091-.254.107-.388l-.005.005c6.589-24.854 4.699-41.592-23.528-41.592l.003-.002zm-141.04 26.739l-.42 1.487-.001.005-3.351 11.875-3.35 11.873c-.231.82-1.118 1.491-1.973 1.491H133.49c-13.452 0-16.729-10.521-13.452-26.042 3.274-15.874 9.697-25.742 22.938-26.741 18.093-1.364 21.713 11.362 17.344 26.052zm12.163 25.818s8.362-20.303 10.262-32.031c2.589-15.699-5.271-38.466-35.631-38.466-30.187 0-43.295 21.737-48.297 45.367-5.001 23.801 1.552 44.675 31.567 44.504l23.679-.088 22.131-.08c.853-.008 1.724-.684 1.941-1.507l3.854-14.705c.215-.825-.306-1.504-1.158-1.509l-3.695-.021-3.693-.022c-.726-.005-1.141-.474-1.053-1.097a1.5 1.5 0 01.091-.347l.002.002z"/><path d="M321.92 571.908a1.018 1.018 0 11-2.036 0 1.018 1.018 0 012.036 0z"/></g><g fill="#0868AC"><path d="M31.747 113.251c-44.257 63.571-38.75 146.277-4.943 213.823.801 1.623 1.65 3.21 2.48 4.807.53 1.009 1.024 2.049 1.581 3.04.314.595.659 1.184.988 1.752.574 1.072 1.168 2.101 1.763 3.147a253.71 253.71 0 003.223 5.534c.61 1.009 1.216 2.022 1.842 3.03a247.654 247.654 0 003.75 5.859c.53.827 1.045 1.655 1.592 2.462a307.179 307.179 0 005.421 7.827l.154.207c.298.414.616.812.919 1.225a258.812 258.812 0 004.943 6.57c.616.785 1.237 1.581 1.864 2.366a398.844 398.844 0 006.313 7.7 285.508 285.508 0 006.489 7.397c.095.106.17.165.244.27a312.242 312.242 0 0013.715 13.967c.711.674 1.412 1.364 2.113 2.006 2.356 2.222 4.753 4.4 7.19 6.532.408.361.828.706 1.231 1.051a315.027 315.027 0 006.425 5.423c.882.717 1.779 1.417 2.666 2.123a273.905 273.905 0 005.363 4.187l2.862 2.175a318.4 318.4 0 006.015 4.314c.744.531 1.45 1.046 2.193 1.55.207.143.393.292.6.43 1.917 1.32 3.882 2.59 5.841 3.863.844.557 1.678 1.14 2.533 1.682a323.574 323.574 0 009.148 5.598c.834.483 1.684.95 2.528 1.428 2.272 1.31 4.55 2.59 6.865 3.852 1.248.674 2.538 1.305 3.797 1.953 1.635.854 3.255 1.724 4.917 2.552.371.18.764.361 1.136.547.664.323 1.338.631 2.007.97a315 315 0 009.435 4.347c3 1.305 6.027 2.563 9.08 3.767.733.303 1.47.584 2.209.87A315.976 315.976 0 00189.88 469c3.16 1.104 6.346 2.123 9.558 3.126.765.223 1.534.467 2.31.69 3.265.987 6.499 2.16 9.86 2.78 214.04 39.008 276.212-128.543 276.212-128.543-52.216 67.986-144.902 85.911-232.72 65.954-3.324-.754-6.552-1.788-9.802-2.749a283.603 283.603 0 01-11.878-3.81l-1.295-.467a304.246 304.246 0 01-8.32-3.083c-.776-.313-1.556-.605-2.332-.918a273.094 273.094 0 01-8.984-3.73c-.605-.26-1.194-.536-1.794-.79a410.23 410.23 0 01-9.77-4.575c-1.97-.96-3.914-1.98-5.862-2.982-1.301-.685-2.623-1.332-3.914-2.049a226.623 226.623 0 01-7.024-3.937c-.78-.44-1.583-.865-2.368-1.321a334.709 334.709 0 01-9.154-5.604c-.829-.53-1.646-1.093-2.47-1.645a251.482 251.482 0 01-6.51-4.325c-.716-.477-1.401-.997-2.102-1.47a362.093 362.093 0 01-6.154-4.446c-.924-.685-1.832-1.38-2.73-2.064a450.689 450.689 0 01-8.033-6.32 315.627 315.627 0 01-6.913-5.827l-.765-.637a318.301 318.301 0 01-7.269-6.606c-.695-.663-1.37-1.305-2.05-1.969a216.073 216.073 0 01-5.224-5.12c-.685-.685-1.375-1.359-2.05-2.043a295.987 295.987 0 01-6.408-6.777l-.319-.334a260.143 260.143 0 01-6.504-7.397c-.574-.69-1.137-1.348-1.705-2.022a271.348 271.348 0 01-4.678-5.784c-.578-.705-1.15-1.417-1.715-2.133a325.787 325.787 0 01-5.405-7.19C44.84 236.424 27.33 144.75 66.292 69.468"/><path d="M169.126 59.694c-32.002 46.028-30.266 107.646-5.3 156.327a203.454 203.454 0 0014.156 23.619c4.795 6.866 10.11 15.038 16.476 20.562 2.31 2.542 4.72 5.015 7.184 7.45.622.637 1.259 1.242 1.89 1.868 2.39 2.32 4.822 4.6 7.339 6.814.106.08.196.18.297.26.032.026.059.037.074.069 2.777 2.435 5.65 4.78 8.57 7.084.648.493 1.285 1.008 1.944 1.517 2.92 2.24 5.904 4.442 8.963 6.543.095.064.17.128.26.197 1.348.933 2.724 1.798 4.094 2.695.653.425 1.274.881 1.938 1.28 2.182 1.4 4.39 2.764 6.642 4.07.324.195.627.36.94.546a243.598 243.598 0 005.872 3.274c.69.387 1.386.727 2.093 1.088 1.359.716 2.723 1.438 4.104 2.122.207.106.42.196.621.287a196.69 196.69 0 008.565 3.99c.621.276 1.264.52 1.89.775a211.33 211.33 0 007.025 2.85c.998.376 2.012.742 3.005 1.103 2.14.79 4.29 1.518 6.451 2.245.983.313 1.939.631 2.92.934 3.075.955 6.118 2.16 9.325 2.695 165.255 27.36 203.41-99.798 203.41-99.798-34.396 49.504-100.996 73.118-172.062 54.683a201.876 201.876 0 01-12.17-3.614 186.662 186.662 0 01-9.504-3.359 214.448 214.448 0 01-7.046-2.838c-.632-.271-1.274-.52-1.896-.802a198.93 198.93 0 01-8.617-4c-1.46-.712-2.894-1.465-4.322-2.203l-2.496-1.284a195.856 195.856 0 01-5.469-3.083c-.43-.244-.876-.483-1.311-.738a209.879 209.879 0 01-6.622-4.043c-.674-.43-1.322-.892-1.996-1.332a261.108 261.108 0 01-4.296-2.84 239.117 239.117 0 01-8.93-6.526c-.675-.53-1.35-1.05-2.013-1.581-31.11-24.548-55.768-58.09-67.492-96.126-12.287-39.448-9.637-83.73 11.65-119.665"/><path d="M284.67 19.678c-18.865 27.747-20.718 62.212-7.63 92.862 13.811 32.529 42.102 58.053 75.118 70.151 1.359.51 2.723.96 4.099 1.428.6.18 1.2.392 1.81.567 1.944.61 3.871 1.322 5.883 1.699 91.248 17.617 115.997-46.792 122.586-56.275-21.68 31.196-58.115 38.684-102.817 27.843a116.39 116.39 0 01-10.816-3.338 132.253 132.253 0 01-12.845-5.333 132.87 132.87 0 01-22.518-13.733C297.536 105.218 272.687 47.351 298.79.225l-14.12 19.453z"/></g></g></svg>